<?xml version="1.0" encoding="utf-8"?>
<!-- Generator: Adobe Illustrator 24.1.0, SVG Export Plug-In . SVG Version: 6.00 Build 0)  -->
<svg version="1.1" id="Calque_1" xmlns="http://www.w3.org/2000/svg" xmlns:xlink="http://www.w3.org/1999/xlink" x="0px" y="0px"
	 viewBox="0 0 2500 2500" style="enable-background:new 0 0 2500 2500;" xml:space="preserve">
<style type="text/css">
	.st0{fill:none;}
	.st1{fill:#2062AF;}
	.st2{fill:#3C9CD7;}
	.st3{fill:#FFFFFF;}
	.st4{fill:url(#SVGID_1_);}
	.st5{fill:url(#SVGID_2_);}
	.st6{fill:url(#SVGID_3_);}
	.st7{opacity:5.000000e-02;enable-background:new    ;}
	.st8{fill:url(#SVGID_4_);}
</style>
<path class="st0" d="M742.1,148c-8.8,0.4-17.7,0.8-26.5,1.3c8.8,0.3,17.6,0.5,26.5,0.8V148z"/>
<path class="st0" d="M0,0v2500h2500V0H0z M1977.1,230.1c-48.8,8.7-98.4,11.6-147.9,11.8c-3.6,0-7.1,0-10.7,0v251H742.1v-314
	c-104.2-0.3-208.3-0.8-312.5-1.7c-6.4-0.1-6.4-9.9,0-10c18.1-0.2,36.3-0.4,54.4-0.6c-0.2-2.6,1.4-5.5,4.8-5.5
	c76.5-0.8,153-1.3,229.4-1.7c-28.8-0.9-57.6-1.8-86.5-2.6c-6.6-0.2-6.2-9.2,0-10c36.6-4.5,73.4-7.2,110.3-8.7V96.6h490.2v-94h204.3
	v94h382v70c5.4,0.2,10.9,0.4,16.3,0.6c6.5,0.3,6.4,9.7,0,10c-5.4,0.3-10.9,0.5-16.3,0.7v30.3c52.5,3.5,104.9,7.5,157.3,12.1
	C1981,220.8,1983,229.1,1977.1,230.1z"/>
<path class="st0" d="M1865.7,221.6c-0.7,1.5-2.1,2.6-4.3,2.6c-14.3,0.1-28.6,0.2-42.9,0.3v7.6c37.9,0.2,75.8-1.1,113.4-5.4
	C1909.9,224.8,1887.8,223.2,1865.7,221.6z"/>
<path class="st1" d="M1882.3,2169.8L1250,2340.1l-632.3-170.2L471.8,589.2h1556.3L1882.3,2169.8z"/>
<path class="st2" d="M1250,717.2v1487.1l1.4,0.4l511.7-137.8l118.1-1349.7L1250,717.2L1250,717.2z"/>
<path class="st3" d="M1249.4,1112.4l-452.5,188.5l15,186.6l437.5-187.1l465.4-199l19.3-190.9L1249.4,1112.4L1249.4,1112.4z"/>
<linearGradient id="SVGID_1_" gradientUnits="userSpaceOnUse" x1="-84.8774" y1="123.7177" x2="-84.8774" y2="42.9167" gradientTransform="matrix(4.6418 0 0 4.6418 1417.139 913.2271)">
	<stop  offset="0.387" style="stop-color:#D1D3D4;stop-opacity:0"/>
	<stop  offset="1" style="stop-color:#D1D3D4"/>
</linearGradient>
<path class="st4" d="M796.9,1300.9l15,186.6l437.5-187.1v-188L796.9,1300.9z"/>
<linearGradient id="SVGID_2_" gradientUnits="userSpaceOnUse" x1="16.0796" y1="83.4167" x2="16.0796" y2="-0.5723" gradientTransform="matrix(4.6418 0 0 4.6418 1417.139 913.2271)">
	<stop  offset="0.387" style="stop-color:#D1D3D4;stop-opacity:0"/>
	<stop  offset="1" style="stop-color:#D1D3D4"/>
</linearGradient>
<path class="st5" d="M1734.1,910.6l-484.7,201.9v188l465.4-199L1734.1,910.6z"/>
<linearGradient id="SVGID_3_" gradientUnits="userSpaceOnUse" x1="-133.4724" y1="159.7557" x2="60.5926" y2="159.7557" gradientTransform="matrix(4.6418 0 0 4.6418 1417.139 913.2271)">
	<stop  offset="0" style="stop-color:#E8E7E5"/>
	<stop  offset="1" style="stop-color:#FFFFFF"/>
</linearGradient>
<path class="st6" d="M797.6,1300.9l15,186.6l671.3,2.1l-15,248.8l-220.9,62.2l-212.4-53.6l-12.9-154.4H825.5l25.7,298.1l398.9,118
	l396.8-115.8l51.5-591.9H797.6z"/>
<path class="st7" d="M1249.4,1300.9H796.9l15,186.6l437.5,1.4L1249.4,1300.9L1249.4,1300.9z M1249.4,1800l-2.1,0.6L1035,1747
	l-12.9-154.4H824.8l25.7,298.1l398.9,118V1800z"/>
<linearGradient id="SVGID_4_" gradientUnits="userSpaceOnUse" x1="-142.4014" y1="19.9887" x2="68.2906" y2="19.9887" gradientTransform="matrix(4.6418 0 0 4.6418 1417.139 913.2271)">
	<stop  offset="0" style="stop-color:#E8E7E5"/>
	<stop  offset="1" style="stop-color:#FFFFFF"/>
</linearGradient>
<path class="st8" d="M756.1,910.6h978l-19.3,190.9H779.7L756.1,910.6L756.1,910.6z"/>
<path class="st7" d="M1249.4,910.6H756.1l23.6,190.9h469.7L1249.4,910.6L1249.4,910.6z"/>
</svg>
